<?xml version="1.0" encoding="UTF-8"?>
<!DOCTYPE svg PUBLIC "-//W3C//DTD SVG 1.1//EN" "http://www.w3.org/Graphics/SVG/1.1/DTD/svg11.dtd">
<!-- Creator: CorelDRAW X7 -->
<svg xmlns="http://www.w3.org/2000/svg" xml:space="preserve" width="210mm" height="44.071mm" version="1.1" style="shape-rendering:geometricPrecision; text-rendering:geometricPrecision; image-rendering:optimizeQuality; fill-rule:evenodd; clip-rule:evenodd"
viewBox="0 0 21000 4407"
 xmlns:xlink="http://www.w3.org/1999/xlink">
 <defs>
  <style type="text/css">
   <![CDATA[
    .fil2 {fill:#DAB96B}
    .fil1 {fill:#E62129}
    .fil0 {fill:#093F7A}
   ]]>
  </style>
 </defs>
 <g id="Layer_x0020_1">
  <metadata id="CorelCorpID_0Corel-Layer"/>
  <path class="fil0" d="M777 402l970 0c216,0 370,12 461,35 121,29 213,85 276,169 63,84 92,178 87,284 -4,87 -34,176 -91,266 -57,91 -140,165 -248,224 -108,59 -272,112 -493,162 224,64 377,145 461,245 84,101 123,217 117,350 -6,124 -55,247 -147,368 -93,121 -211,210 -358,266 -146,56 -410,84 -792,84l-1020 0 26 -67c99,0 171,-9 214,-27 44,-18 79,-46 107,-84 28,-38 61,-118 102,-238l505 -1509c52,-153 78,-255 81,-307 2,-43 -14,-77 -49,-105 -34,-28 -111,-44 -230,-49l21 -67zm507 1084c164,-3 294,-29 392,-78 96,-50 176,-131 238,-244 62,-112 96,-219 101,-319 4,-94 -22,-170 -79,-229 -56,-60 -134,-88 -233,-86l-100 4 -319 952zm-49 135l-362 1091c60,2 105,3 135,3 269,0 459,-74 571,-224 112,-150 171,-311 179,-482 4,-83 -13,-155 -51,-218 -38,-64 -87,-108 -151,-133 -62,-24 -170,-37 -321,-37zm3178 -418l-404 1203 -43 147c-5,18 -7,32 -8,40 0,14 5,27 14,38 10,10 20,16 31,16 25,0 61,-19 107,-58 20,-16 65,-71 138,-166l62 33c-92,156 -189,270 -289,342 -100,72 -207,108 -319,108 -69,0 -120,-18 -155,-53 -35,-36 -50,-81 -48,-136 2,-47 25,-134 70,-261l50 -147c-151,240 -293,410 -426,510 -78,58 -159,87 -243,87 -111,0 -190,-46 -235,-137 -45,-91 -65,-194 -60,-309 7,-169 68,-364 182,-584 113,-221 258,-397 432,-531 144,-111 277,-167 398,-167 68,0 121,20 161,59 39,39 66,111 80,215l76 -223 429 -26zm-594 344c5,-97 -7,-168 -36,-211 -20,-31 -49,-46 -86,-46 -38,0 -77,18 -119,55 -84,74 -178,226 -281,455 -104,228 -159,425 -167,592 -3,64 6,110 25,138 20,29 43,43 68,43 55,0 111,-32 169,-94 83,-90 161,-199 230,-328 124,-226 190,-428 197,-604zm1663 -369l-259 776c160,-226 280,-381 359,-465 115,-120 213,-202 295,-245 81,-44 157,-66 227,-66 63,0 115,24 158,70 42,46 62,107 59,181 -3,68 -22,150 -55,247l-266 772c-22,67 -34,111 -35,132 0,12 4,23 12,32 9,10 18,15 28,15 12,0 25,-5 38,-15 44,-34 89,-84 135,-148 12,-16 31,-42 56,-76l67 42c-191,298 -383,447 -579,447 -75,0 -132,-20 -173,-58 -40,-39 -59,-87 -56,-145 2,-51 20,-126 53,-226l261 -772c17,-51 27,-89 28,-113 1,-13 -4,-24 -14,-35 -11,-10 -23,-15 -38,-15 -46,0 -102,31 -170,94 -174,159 -346,396 -515,711l-173 537 -461 0 390 -1161c38,-115 58,-196 60,-244 1,-21 -3,-38 -12,-52 -9,-14 -24,-25 -45,-33 -22,-7 -63,-12 -123,-12l23 -68 615 -107 110 0zm2314 -832l-575 1711 431 -383 143 -123c42,-41 71,-76 88,-105 10,-18 16,-35 16,-51 2,-25 -9,-46 -33,-63 -23,-17 -81,-29 -173,-34l23 -69 736 0 -21 69c-88,20 -160,44 -215,70 -43,21 -97,55 -161,101 -94,71 -163,126 -204,165l-83 74 88 499c34,194 60,305 79,335 12,18 28,27 46,27 42,0 94,-49 157,-148 9,-14 21,-32 37,-56l64 41c-97,169 -205,298 -322,385 -79,60 -149,89 -211,89 -61,0 -111,-22 -150,-66 -39,-44 -75,-159 -108,-346l-72 -411 -207 177 -209 621 -461 0 692 -2042c30,-87 45,-146 46,-176 1,-28 -3,-50 -15,-68 -11,-17 -27,-30 -48,-39 -21,-8 -63,-12 -125,-12l19 -67 620 -105 108 0z"/>
  <path class="fil0" d="M13435 295l1144 0c139,0 253,6 342,18 89,13 174,44 255,94 80,51 143,117 186,199 43,83 62,173 58,271 -6,125 -48,243 -127,355 -79,111 -200,191 -363,241l-1 7c262,80 386,254 374,523 -8,196 -98,374 -269,533 -171,160 -408,240 -712,240l-1528 0 641 -2481zm519 970l260 0c113,0 201,-8 263,-24 62,-16 113,-49 153,-99 40,-51 61,-101 63,-152 3,-60 -15,-108 -55,-142 -39,-34 -120,-51 -240,-51l-327 0 -117 468zm-253 978l410 0c289,0 438,-96 446,-288 3,-67 -15,-121 -55,-160 -40,-39 -125,-58 -253,-58l-416 0 -132 506zm4601 -1948l-155 609 -805 0 -489 1872 -770 0 487 -1872 -770 0 155 -609 2347 0zm2698 0l-644 2481 -718 0 -550 -1442 -7 0 -373 1442 -721 0 645 -2481 717 0 547 1445 7 0 376 -1445 721 0z"/>
  <path class="fil1" d="M20554 3019c-637,25 -5301,229 -6116,357 -816,127 -1351,127 -1555,254 -204,128 -357,230 -102,459 255,230 408,230 637,281 229,50 433,76 714,-102 280,-179 637,-281 1223,-434 1708,-382 5199,-815 5199,-815z"/>
  <path class="fil2" d="M9775 2112l296 -186 0 356 -295 191 -4 -3 3 -358zm594 -374l294 -185 289 183 0 342 -277 -190 -306 200 0 -350zm872 181l301 190 0 372 -301 -206 0 -356zm561 355l20 12 -261 186 241 -198z"/>
  <path class="fil2" d="M10369 2466l275 -177 308 196 0 372 -295 -196 -289 203 -169 -118 170 115 0 -395zm872 202l5 3 -55 36 50 -32 0 -7z"/>
  <polygon class="fil0" points="9498,2286 9498,777 10664,0 11804,760 11804,2272 11542,2488 11542,992 10682,374 9784,964 9772,2473 "/>
  <polygon class="fil0" points="10071,2660 10071,1165 10675,763 11241,1140 11241,2675 10952,2867 10952,1323 10670,1135 10369,1335 10369,2861 "/>
 </g>
</svg>
